# xmcd
#
# Track frame offsets:
#	150
#	21713
#	39599
#	56580
#	73741
#	86903
#	105304
#	121393
#	137608
#	151858
#	171960
#	190961
#	208471
#	226957
#	244036
#	261115
#
# Disc length: 3721 seconds
#
# Revision: 0
# Processed by: cddbd v1.5.1PL0 Copyright (c) Steve Scherf et al.
# Submitted via: dBpowerAMP V4.0
#
DISCID=e80e8710
DTITLE=Bruno and Marrone - Inevitável
DYEAR=2004
DGENRE=Sertanejo
TTITLE0=Será
TTITLE1=Vai Dar Namoro
TTITLE2=Deixa
TTITLE3=É Você Que Eu Amo
TTITLE4=Pra Lá Que Eu Vou
TTITLE5=Sonhos Perdidos
TTITLE6=Trânsito Parado
TTITLE7=Doce Desejo
TTITLE8=Apaziguar
TTITLE9=Se Não Tivesse Ido
TTITLE10=Você Não Me Ensinou A Te Esquecer
TTITLE11=Inevitável
TTITLE12=Coração de Pedra
TTITLE13=Foi Engano
TTITLE14=Ligação Urbana (ao vivo)
TTITLE15=Ana Paula - Uma Noite
EXTD=Bruno and Marrone - Inevitável
EXTT0=
EXTT1=
EXTT2=
EXTT3=
EXTT4=
EXTT5=
EXTT6=
EXTT7=
EXTT8=
EXTT9=
EXTT10=
EXTT11=
EXTT12=
EXTT13=
EXTT14=
EXTT15=
PLAYORDER=
